<svg width="183" height="64" viewBox="0 0 183 64" fill="none" xmlns="http://www.w3.org/2000/svg">
<path d="M51.5455 34.05V12.2319H59.7274C61.4035 12.2319 62.8097 12.5231 63.9461 13.1054C65.0896 13.6878 65.9525 14.5046 66.5349 15.5557C67.1244 16.5998 67.4191 17.8178 67.4191 19.2098C67.4191 20.609 67.1208 21.8235 66.5242 22.8533C65.9347 23.876 65.0647 24.6679 63.9142 25.229C62.7636 25.783 61.3502 26.06 59.6741 26.06H53.8467V22.7787H59.1414C60.1215 22.7787 60.9241 22.6438 61.5491 22.3739C62.1741 22.0969 62.6357 21.6956 62.934 21.1701C63.2394 20.6374 63.3921 19.984 63.3921 19.2098C63.3921 18.4357 63.2394 17.7752 62.934 17.2283C62.6286 16.6743 62.1634 16.2553 61.5384 15.9712C60.9134 15.68 60.1073 15.5344 59.1201 15.5344H55.498V34.05H51.5455ZM62.8169 24.1637L68.2181 34.05H63.8076L58.5022 24.1637H62.8169ZM77.1468 34.3697C75.5061 34.3697 74.0892 34.0287 72.896 33.3469C71.71 32.658 70.7973 31.685 70.1581 30.4279C69.5189 29.1637 69.1993 27.6758 69.1993 25.9641C69.1993 24.2809 69.5189 22.8036 70.1581 21.5323C70.8044 20.2539 71.7064 19.2596 72.8641 18.5493C74.0218 17.832 75.3818 17.4733 76.9443 17.4733C77.9529 17.4733 78.9046 17.6367 79.7994 17.9634C80.7014 18.283 81.4969 18.7802 82.1858 19.4549C82.8818 20.1296 83.4287 20.989 83.8264 22.033C84.2242 23.0699 84.423 24.3057 84.423 25.7404V26.9229H71.0104V24.3235H80.7263C80.7192 23.5848 80.5594 22.9279 80.2469 22.3526C79.9344 21.7702 79.4976 21.3121 78.9365 20.9783C78.3825 20.6445 77.7362 20.4776 76.9976 20.4776C76.2093 20.4776 75.5168 20.6694 74.9202 21.0529C74.3236 21.4293 73.8584 21.9265 73.5246 22.5444C73.1979 23.1552 73.031 23.8263 73.0239 24.5579V26.827C73.0239 27.7787 73.1979 28.5955 73.5459 29.2773C73.8939 29.952 74.3804 30.4705 75.0054 30.8327C75.6304 31.1878 76.3619 31.3654 77.2 31.3654C77.7611 31.3654 78.2689 31.2873 78.7235 31.131C79.178 30.9677 79.5722 30.7297 79.906 30.4172C80.2398 30.1047 80.4919 29.7177 80.6624 29.256L84.2632 29.6608C84.036 30.6125 83.6027 31.4435 82.9635 32.1537C82.3314 32.8569 81.5218 33.4037 80.5345 33.7944C79.5473 34.1779 78.4181 34.3697 77.1468 34.3697ZM94.0521 40.5273C92.6672 40.5273 91.4775 40.3391 90.4832 39.9627C89.4889 39.5934 88.6899 39.0962 88.0862 38.4712C87.4825 37.8462 87.0635 37.1537 86.8291 36.3938L90.3021 35.5522C90.4584 35.8718 90.6856 36.1878 90.9839 36.5003C91.2822 36.8199 91.6835 37.0827 92.1878 37.2887C92.6991 37.5018 93.3419 37.6083 94.116 37.6083C95.2098 37.6083 96.1153 37.342 96.8327 36.8093C97.55 36.2837 97.9086 35.4172 97.9086 34.2098V31.1097H97.7169C97.518 31.5074 97.2268 31.9158 96.8433 32.3348C96.4669 32.7539 95.9662 33.1054 95.3412 33.3895C94.7233 33.6736 93.9456 33.8157 93.0081 33.8157C91.751 33.8157 90.6111 33.5209 89.5883 32.9314C88.5727 32.3348 87.7631 31.4471 87.1594 30.2681C86.5628 29.082 86.2645 27.5976 86.2645 25.815C86.2645 24.0181 86.5628 22.5018 87.1594 21.266C87.7631 20.0231 88.5763 19.082 89.599 18.4428C90.6217 17.7965 91.7616 17.4733 93.0187 17.4733C93.9775 17.4733 94.7659 17.6367 95.3838 17.9634C96.0088 18.283 96.5059 18.6701 96.8753 19.1246C97.2446 19.5721 97.5251 19.9947 97.7169 20.3924H97.93V17.6864H101.733V34.3164C101.733 35.7155 101.399 36.8732 100.732 37.7894C100.064 38.7056 99.1515 39.391 97.9939 39.8455C96.8362 40.3 95.5223 40.5273 94.0521 40.5273ZM94.0841 30.7901C94.9008 30.7901 95.5969 30.5912 96.1721 30.1935C96.7474 29.7958 97.1842 29.2241 97.4825 28.4783C97.7808 27.7326 97.93 26.8377 97.93 25.7937C97.93 24.7638 97.7808 23.8618 97.4825 23.0877C97.1913 22.3135 96.7581 21.7134 96.1828 21.2873C95.6146 20.854 94.915 20.6374 94.0841 20.6374C93.2247 20.6374 92.5074 20.8611 91.9321 21.3086C91.3568 21.756 90.9236 22.3704 90.6324 23.1516C90.3412 23.9258 90.1956 24.8064 90.1956 25.7937C90.1956 26.7951 90.3412 27.6722 90.6324 28.425C90.9307 29.1708 91.3675 29.7532 91.9427 30.1722C92.5251 30.5841 93.2389 30.7901 94.0841 30.7901ZM112.18 34.3697C110.539 34.3697 109.122 34.0287 107.929 33.3469C106.743 32.658 105.831 31.685 105.191 30.4279C104.552 29.1637 104.233 27.6758 104.233 25.9641C104.233 24.2809 104.552 22.8036 105.191 21.5323C105.838 20.2539 106.74 19.2596 107.897 18.5493C109.055 17.832 110.415 17.4733 111.978 17.4733C112.986 17.4733 113.938 17.6367 114.833 17.9634C115.735 18.283 116.53 18.7802 117.219 19.4549C117.915 20.1296 118.462 20.989 118.86 22.033C119.257 23.0699 119.456 24.3057 119.456 25.7404V26.9229H106.044V24.3235H115.759C115.752 23.5848 115.593 22.9279 115.28 22.3526C114.968 21.7702 114.531 21.3121 113.97 20.9783C113.416 20.6445 112.769 20.4776 112.031 20.4776C111.242 20.4776 110.55 20.6694 109.953 21.0529C109.357 21.4293 108.892 21.9265 108.558 22.5444C108.231 23.1552 108.064 23.8263 108.057 24.5579V26.827C108.057 27.7787 108.231 28.5955 108.579 29.2773C108.927 29.952 109.414 30.4705 110.039 30.8327C110.664 31.1878 111.395 31.3654 112.233 31.3654C112.794 31.3654 113.302 31.2873 113.757 31.131C114.211 30.9677 114.605 30.7297 114.939 30.4172C115.273 30.1047 115.525 29.7177 115.696 29.256L119.296 29.6608C119.069 30.6125 118.636 31.4435 117.997 32.1537C117.365 32.8569 116.555 33.4037 115.568 33.7944C114.581 34.1779 113.451 34.3697 112.18 34.3697ZM125.825 12.2319V34.05H121.969V12.2319H125.825ZM129.041 34.05V17.6864H132.78V20.4137H132.951C133.249 19.4691 133.761 18.7411 134.485 18.2297C135.217 17.7113 136.051 17.452 136.989 17.452C137.202 17.452 137.44 17.4627 137.702 17.484C137.972 17.4982 138.196 17.5231 138.373 17.5586V21.1062C138.21 21.0493 137.951 20.9996 137.596 20.957C137.248 20.9073 136.91 20.8824 136.584 20.8824C135.881 20.8824 135.248 21.0351 134.687 21.3405C134.133 21.6388 133.697 22.0543 133.377 22.587C133.057 23.1197 132.898 23.734 132.898 24.43V34.05H129.041ZM146.756 34.3697C145.116 34.3697 143.699 34.0287 142.505 33.3469C141.319 32.658 140.407 31.685 139.767 30.4279C139.128 29.1637 138.809 27.6758 138.809 25.9641C138.809 24.2809 139.128 22.8036 139.767 21.5323C140.414 20.2539 141.316 19.2596 142.473 18.5493C143.631 17.832 144.991 17.4733 146.554 17.4733C147.562 17.4733 148.514 17.6367 149.409 17.9634C150.311 18.283 151.106 18.7802 151.795 19.4549C152.491 20.1296 153.038 20.989 153.436 22.033C153.834 23.0699 154.032 24.3057 154.032 25.7404V26.9229H140.62V24.3235H150.336C150.329 23.5848 150.169 22.9279 149.856 22.3526C149.544 21.7702 149.107 21.3121 148.546 20.9783C147.992 20.6445 147.346 20.4776 146.607 20.4776C145.819 20.4776 145.126 20.6694 144.53 21.0529C143.933 21.4293 143.468 21.9265 143.134 22.5444C142.807 23.1552 142.64 23.8263 142.633 24.5579V26.827C142.633 27.7787 142.807 28.5955 143.155 29.2773C143.503 29.952 143.99 30.4705 144.615 30.8327C145.24 31.1878 145.971 31.3654 146.809 31.3654C147.37 31.3654 147.878 31.2873 148.333 31.131C148.787 30.9677 149.182 30.7297 149.515 30.4172C149.849 30.1047 150.101 29.7177 150.272 29.256L153.873 29.6608C153.645 30.6125 153.212 31.4435 152.573 32.1537C151.941 32.8569 151.131 33.4037 150.144 33.7944C149.157 34.1779 148.027 34.3697 146.756 34.3697ZM164.716 17.6864V20.6694H155.309V17.6864H164.716ZM157.632 13.766H161.488V29.1282C161.488 29.6466 161.566 30.0444 161.723 30.3214C161.886 30.5912 162.099 30.7759 162.362 30.8753C162.625 30.9748 162.916 31.0245 163.235 31.0245C163.477 31.0245 163.697 31.0067 163.896 30.9712C164.102 30.9357 164.258 30.9037 164.365 30.8753L165.014 33.8902C164.809 33.9613 164.514 34.0394 164.13 34.1246C163.754 34.2098 163.292 34.2596 162.745 34.2738C161.779 34.3022 160.909 34.1566 160.135 33.837C159.361 33.5103 158.747 33.006 158.292 32.3242C157.845 31.6424 157.625 30.7901 157.632 29.7674V13.766ZM175.363 17.6864V20.6694H165.956V17.6864H175.363ZM168.278 13.766H172.135V29.1282C172.135 29.6466 172.213 30.0444 172.369 30.3214C172.532 30.5912 172.745 30.7759 173.008 30.8753C173.271 30.9748 173.562 31.0245 173.882 31.0245C174.123 31.0245 174.343 31.0067 174.542 30.9712C174.748 30.9357 174.905 30.9037 175.011 30.8753L175.661 33.8902C175.455 33.9613 175.16 34.0394 174.777 34.1246C174.4 34.2098 173.939 34.2596 173.392 34.2738C172.426 34.3022 171.556 34.1566 170.782 33.837C170.008 33.5103 169.393 33.006 168.939 32.3242C168.491 31.6424 168.271 30.7901 168.278 29.7674V13.766Z" fill="#020817"/>
<path d="M40.2 2.15002H5.6C3.9 2.15002 2.5 3.55002 2.5 5.25002V26.45C5.2 24.35 8.6 21.55 14.7 23.05C20 24.35 21.1 28.45 29.5 33.05C34.6 35.85 39.4 33.65 43.3 31.45V5.25002C43.3 3.55002 41.9 2.15002 40.2 2.15002Z" fill="#1A833B"/>
<path d="M32.2 42.4501C30.5 42.2501 29.1 41.6501 27.8 40.7501C24.9 38.9501 22.1 36.0501 16.1 32.9501C11.4 30.6501 6.7 32.4501 2.5 34.8501V58.5501C2.5 60.2501 3.9 61.6501 5.6 61.6501H40.1C41.8 61.6501 43.2 60.2501 43.2 58.5501V39.1501C39.6 41.2501 36.1 43.0501 32.2 42.4501Z" fill="#1A589F"/>
<path d="M29.5 32.9501C21.2 28.3501 20 24.2501 14.7 22.9501C8.6 21.4501 5.2 24.3501 2.5 26.3501V30.6501V34.7501C6.7 32.3501 11.4 30.4501 16.1 32.8501C22.1 35.9501 24.9 38.8501 27.8 40.6501C29.1 41.4501 30.5 42.0501 32.2 42.3501C36.1 42.9501 39.6 41.2501 43.3 39.1501V35.3501V31.2501C39.4 33.6501 34.6 35.8501 29.5 32.9501Z" fill="white"/>
<path d="M52 56.763V42.8992H53.6976V56.763H52ZM55.6074 49.4067L61.1247 56.763H59.0026L53.6976 49.4067L59.0026 42.8992H61.1247L55.6074 49.4067Z" fill="black"/>
<path d="M70.2495 57.1166C69.5422 56.9044 69.047 56.3385 68.9055 55.6312C67.9153 56.6215 67.1372 56.9751 66.0055 56.9751C63.5298 56.9751 62.7517 55.4897 62.7517 54.075C62.7517 51.8116 64.7323 50.4676 68.0567 50.4676C68.2689 50.4676 68.4104 50.4676 68.7641 50.4676V49.7603C68.7641 48.8407 68.6933 48.4871 68.4104 48.2041C68.0567 47.8505 67.7031 47.6383 67.0665 47.6383C65.9347 47.6383 64.5201 48.2749 63.8834 48.8407L63.1054 47.7797C64.4493 46.8602 65.864 46.4358 67.3494 46.4358C68.7641 46.4358 69.6836 47.0017 70.108 47.9919C70.3202 48.5578 70.3202 49.3359 70.3202 50.1847L70.2495 53.5092C70.1788 55.136 70.3202 55.5605 71.0276 55.9849L70.2495 57.1166ZM67.986 51.5994C65.4396 51.5994 64.5201 52.4482 64.5201 54.0043C64.5201 55.2068 65.0859 55.8434 66.2884 55.8434C67.3494 55.8434 68.2689 55.2068 68.7641 54.2872L68.8348 51.6701C68.5519 51.5994 68.1982 51.5994 67.986 51.5994Z" fill="black"/>
<path d="M78.2424 48.2041C78.1716 48.1333 77.9594 48.1333 77.8179 48.1333C77.1813 48.1333 76.6155 48.4163 76.1203 48.8407C75.6252 49.3358 75.5545 49.6187 75.5545 50.4676V56.7629H73.9983V48.9821C73.9983 47.6382 73.7154 47.0016 73.6447 46.8601L75.2008 46.4357C75.2715 46.5772 75.5545 47.3553 75.5545 48.0626C76.2618 47.0016 77.3228 46.365 78.3838 46.365C78.596 46.365 78.879 46.4357 78.9497 46.4357L78.2424 48.2041Z" fill="black"/>
<path d="M85.3864 47.8502H83.2644V54.3578C83.2644 55.4895 83.5473 55.8432 84.5376 55.8432C84.962 55.8432 85.2449 55.7724 85.5279 55.631L85.7401 56.6212C85.2449 56.9042 84.6791 57.0456 83.9717 57.0456C83.4766 57.0456 83.0522 56.9749 82.6278 56.7627C81.9205 56.409 81.6375 55.7724 81.6375 54.7822V47.8502H80.2936V46.6478H81.6375C81.6375 45.799 81.779 44.455 81.779 44.1013L83.4059 43.7477C83.3351 44.1013 83.1937 45.4453 83.1937 46.6478H85.7401L85.3864 47.8502Z" fill="black"/>
<path d="M92.7426 56.8337H91.1864L87.579 46.7895L89.2059 46.4358L91.5401 53.3677C91.7523 54.075 91.9645 54.9238 92.0352 55.0653H92.1059C92.1767 54.9238 92.3181 54.1458 92.6011 53.3677L94.9353 46.7187H96.6329L92.7426 56.8337Z" fill="black"/>
<path d="M99.8161 51.9529V52.1651C99.8161 53.0846 99.9575 53.8627 100.311 54.3578C100.877 55.2067 101.797 55.5603 102.787 55.5603C103.777 55.5603 104.555 55.2774 105.263 54.6408L105.899 55.6311C104.98 56.4091 103.777 56.9043 102.504 56.9043C99.7453 56.9043 98.0477 54.853 98.0477 51.5285C98.0477 49.8309 98.4014 48.7699 99.2502 47.7089C100.028 46.7893 101.019 46.2942 102.292 46.2942C103.353 46.2942 104.343 46.6479 105.05 47.3552C105.899 48.2747 106.182 49.1943 106.182 51.5992V51.8114H99.8161V51.9529ZM103.919 48.5577C103.565 47.9918 102.858 47.6381 102.08 47.6381C100.665 47.6381 99.8161 48.6991 99.7453 50.7504H104.343C104.414 49.6894 104.272 49.0528 103.919 48.5577Z" fill="black"/>
<path d="M113.326 48.2041C113.256 48.1333 113.043 48.1333 112.902 48.1333C112.265 48.1333 111.699 48.4163 111.204 48.8407C110.709 49.3358 110.638 49.6187 110.638 50.4676V56.7629H109.082V48.9821C109.082 47.6382 108.799 47.0016 108.729 46.8601L110.285 46.4357C110.356 46.5772 110.638 47.3553 110.638 48.0626C111.346 47.0016 112.407 46.365 113.468 46.365C113.68 46.365 113.963 46.4357 114.034 46.4357L113.326 48.2041Z" fill="black"/>
<path d="M116.085 56.7628V44.3844C116.085 43.1819 115.873 42.4746 115.802 42.3331L117.358 42.0502C117.429 42.1916 117.641 43.0404 117.641 44.4551V56.8335H116.085V56.7628ZM122.38 56.7628L117.783 51.1041L121.602 46.7186H123.583L119.622 51.1041L124.502 56.7628H122.38Z" fill="black"/>
<path d="M127.261 51.9529V52.1651C127.261 53.0846 127.402 53.8627 127.756 54.3578C128.322 55.2067 129.241 55.5603 130.231 55.5603C131.222 55.5603 132 55.2774 132.707 54.6408L133.344 55.6311C132.424 56.4091 131.222 56.9043 129.949 56.9043C127.19 56.9043 125.492 54.853 125.492 51.5285C125.492 49.8309 125.846 48.7699 126.695 47.7089C127.473 46.7893 128.463 46.2942 129.736 46.2942C130.797 46.2942 131.788 46.6479 132.495 47.3552C133.344 48.2747 133.627 49.1943 133.627 51.5992V51.8114H127.261V51.9529ZM131.434 48.5577C131.08 47.9918 130.373 47.6381 129.595 47.6381C128.18 47.6381 127.331 48.6991 127.261 50.7504H131.858C131.858 49.6894 131.717 49.0528 131.434 48.5577Z" fill="black"/>
<path d="M140.347 47.8502H138.225V54.3578C138.225 55.4895 138.508 55.8432 139.498 55.8432C139.922 55.8432 140.205 55.7724 140.488 55.631L140.7 56.6212C140.205 56.9042 139.639 57.0456 138.932 57.0456C138.437 57.0456 138.012 56.9749 137.588 56.7627C136.881 56.409 136.598 55.7724 136.598 54.7822V47.8502H135.254V46.6478H136.598C136.598 45.799 136.739 44.455 136.739 44.1013L138.366 43.7477C138.295 44.1013 138.154 45.4453 138.154 46.6478H140.7L140.347 47.8502Z" fill="black"/>
</svg>
